<svg xmlns="http://www.w3.org/2000/svg" viewBox="0 0 171.73 145.6"><defs><style>.cls-1{fill:#24425c;}.cls-2{fill:none;stroke:#24425c;stroke-miterlimit:10;stroke-width:7px;}.cls-3{fill:#386193;}.cls-4{fill:#76964a;}.cls-5{fill:#47713f;}.cls-6{fill:#76a4cb;}.cls-7{fill:#b4d5e0;}.cls-8{fill:#86bede;}.cls-9{fill:#87b6d1;}.cls-10{fill:#31557a;}.cls-11{fill:#fff;}</style></defs><g id="Layer_2" data-name="Layer 2"><g id="Capa_1" data-name="Capa 1"><g id="logo_minaguas" data-name="logo minaguas"><path class="cls-1" d="M80,11.06a45,45,0,0,1,49.2,23.08c8.84,16.93,5.34,38.29-8.11,51.74C107.85,99.14,86.78,102.8,70,94.3A45,45,0,0,1,45.7,47.78,42,42,0,0,1,66,17.66,69.47,69.47,0,0,1,78,12c2.77-1,5.72-2.12,5.69-5.72,0-6.44-10-6.45-10,0v.07l1.46-3.54c2.66-2.23.38-.54-1.16,0Q71.05,3.89,68.2,5.19A67.72,67.72,0,0,0,51.51,15.86c-9.3,8.18-14.61,20.83-15.95,33-2.48,22.44,10.08,45.05,30.53,54.7a55.07,55.07,0,0,0,61.15-9.65A54.86,54.86,0,0,0,139.81,33.3C129.46,8.8,103.08-3.93,77.36,1.41,71.06,2.72,73.73,12.36,80,11.06Z"/><path class="cls-1" d="M133.74,63.63c-2.15,13.47-11.3,24-23.28,30.13-9.72,5-21.78,3.33-27.08-6.7-3.14-5.94-4-11.71-.36-17.62,3.84-6.24,10-10.65,14.81-16.14,7.44-8.58,9.7-18.55,7-29.58C102.27,13.6,95.14,2.36,84,.68v9.64c11.69-1.9,24.8,2.07,34.09,9.19C132.32,30.41,135.62,48,133.57,65c-.78,6.37,9.23,6.32,10,0,2.44-20.09-2.85-40.58-19.41-53.31A56.46,56.46,0,0,0,81.35.68c-4.74.77-4.8,8.92,0,9.64C91.48,11.85,96.15,24.56,96,33.61,95.73,48,78.72,54.92,73,67c-5.29,11.13-1,25.6,8.32,33.45s23.85,7.36,34.23,1.94c14-7.31,25.35-20.26,27.88-36.11C144.39,60,134.76,57.28,133.74,63.63Z"/><path class="cls-1" d="M124.72,90.83c-.75-1.13-1.53-2.22-2.39-3.28l1.29,4.86c1.4-3.39,2.59-10.51-2.4-12.1-.89-.28-.43,4.94.83,1.68a7.37,7.37,0,0,0,.42-3.75,5.51,5.51,0,0,0-4.14-4.5l3.49,6.15a6.48,6.48,0,0,0,.46-1.93c.21-1.18,0-.9-.49.82l-5.65,2.3c4.26.69,8.32-2.87,11.92-4.76l-7.34-3c1.08,4.46,1.3,10.16,2.22,15l1.29-4.87a26.22,26.22,0,0,1-6.35,5.6c-5.48,3.36-.46,12,5.05,8.63,3.22-2,9.23-6.18,9.75-10,.35-2.58-.92-5.84-1.32-8.39-.43-2.81-.33-5.82-1-8.57-.79-3.27-4.58-4.44-7.35-3s-5.23,3-8,4.26l3.86-.5h-.07a5.31,5.31,0,0,0-5.64,2.3c-.77,1-.64,2.32-1,3.49a5.09,5.09,0,0,0,3.49,6.15L114,82.44l-1.47-3.53c.12-1.65-.79,1.58-.89,2.15a6.65,6.65,0,0,0,.8,4.65c.18.31,3.12,3.42,3.35,3-.42-1.75-.76-2.06-1-.93-.28.66-.56,1.32-.83,2-.71,1.72.24,3.58,1.28,4.87.27.43.54.85.83,1.26C119.63,101.22,128.3,96.22,124.72,90.83Z"/><path class="cls-1" d="M132.59,85.65c-.48-2.47-1-4.92-1.39-7.42s-.25-5.13-.84-7.55l-.5,3.85c-1.56,2.26-.76,1.13.45.28.8-.56,1.6-1.13,2.39-1.72,1.89-1.4,3-2.6,3.11-5l-6.33,4.82a9.33,9.33,0,0,1,4.23,1.57l-1.29-4.87c-1.16,4.73-4.35,10.86-8.19,13.84-2.15,1.67-1.72,5.31,0,7.07,2.08,2.13,5,1.65,7.07,0,5-3.9,9.26-12.08,10.76-18.25.39-1.57.11-3.79-1.28-4.86a19.62,19.62,0,0,0-8.64-4.14,5.08,5.08,0,0,0-6.33,4.82l0,.24L128.27,64c-3.75,2.8-7.78,4.19-7.57,9.3a102.88,102.88,0,0,0,2.24,15C124.16,94.62,133.8,92,132.59,85.65Z"/><path class="cls-1" d="M103,83.65a14.51,14.51,0,0,0,2.19-2.1H98.12c1.78,2,3.24,4.35,6.21,4.44,2.76.08,8.43-1.61,10.39-3.57,2.73-2.73,1.06-5.86-.42-8.69-1.76-3.39-3.23-6.91-4.75-10.4l-3,7.34a5.79,5.79,0,0,1,2.52,0c-.13-1.81-.26-1.83-.37,0a10.17,10.17,0,0,0,1.11,5,8.22,8.22,0,0,0,7.59,5l-5-5c-.24-2.32,2.27-4-1.87-1.79a8.23,8.23,0,0,0-1.83,1.22,6.23,6.23,0,0,0-2.15,5.21c.32,3.25,3.74,6,7,6l-5-5a2,2,0,0,0,.3,2l3.53-1.46c-3,.27-5.53.35-8.4,1.61-.28.12-4.55,2.38-2.13,1.17-1.82.91-3.5,1.07-3.75,3,0-.41.63-.5.12-.25s.6-.64,1-.93A26.21,26.21,0,0,0,103,83.65c4.42-4.67-2.63-11.76-7.07-7.07,1-1.07-1,.62-1.3.86a24.06,24.06,0,0,0-2.67,2,13.32,13.32,0,0,0-2.34,2.74C87.16,86.27,87.3,92,91.71,94.7c5.34,3.24,10.8.3,15.75-1.93,2.83-1.28,5.9-.4,8.42-2.43,2.9-2.34,2.91-5.63,2.63-9.08a5.11,5.11,0,0,0-5-5h-.45l3.54,1.47c-.82-.67-1.64-1.31-2.51-1.91l2.3,3-.1-.53-.5,3.85c-.83,1.24,1.2-.18,1.68-.39a10.82,10.82,0,0,0,3.47-1.84,5.19,5.19,0,0,0,1.47-4.26c-.28-2.7-2.07-5-5-5,4.13,0-.46-7-2.47-8.25-3.19-2-7.47-2.2-11-1.35s-4.21,4.53-3,7.34c1.89,4.35,3.82,8.6,6,12.78l-.51-3.85-.08.26,3.49-3.49c-1.18.42-2.37.8-3.57,1.16-1.37.43-2.92.12-.86.85l3,2.3a46,46,0,0,0-3.22-3.9c-1.67-1.89-5.43-2-7.07,0a14.51,14.51,0,0,1-2.19,2.1C91,80.66,98.06,87.7,103,83.65Z"/><path class="cls-1" d="M122.47,76.26l-.06-.63-2.48,4.31a15.28,15.28,0,0,0,1.58-1.2c1.43-1.13,1.58-3.24,1.28-4.87A27.12,27.12,0,0,0,121.64,71c-.34-1.56,0-3.07-.51-4.66-1.2-3.48-4.56-4.23-7.24-6.15L115.68,62l-.46-.68.68,2.52V63l-.69,2.52.23-.43-1.79,1.79c-1.9.12-1.94.25-.13.37,0,.17,0,.24.24.2a6.67,6.67,0,0,1,.8.32,35.16,35.16,0,0,0,3.79,1.63c1,.34-1.32-.8-.34-.14a13,13,0,0,0,1.48.78A35.28,35.28,0,0,0,124.12,72l-3.67-4.82a41.29,41.29,0,0,0,.18,4.72l.68-2.52-.09.13L123,67.69c-2.68,1.4-5.23,3-8,4.26l3.86-.5h-.07c-2.66-.43-5.38.69-6.15,3.49-.65,2.39.81,5.72,3.49,6.15,3.72.6,7.57-2.23,10.67-4,4.26-2.47,3.7-5.49,3.64-9.89a5.15,5.15,0,0,0-3.67-4.82c-1.77-.59-3.54-1.68-5.49-2.46-.59-.24.42.2-.49-.19-.47-.2-.93-.42-1.39-.63a22.65,22.65,0,0,0-4.9-1.66,9.05,9.05,0,0,0-4.92.33,6,6,0,0,0-3.6,4.62,6.42,6.42,0,0,0,2.35,6.09c1.29,1.13,3.33,1.52,4.43,2.78L111.49,69c.43,1.23.08,2.84.35,4.17.23,1.15,1.13,2.4,1.31,3.36l1.28-4.86.45-.36a4.89,4.89,0,0,0-2.47,4.32l.06.63c.28,2.69,2.1,5,5,5C120,81.26,122.76,79,122.47,76.26Z"/><path class="cls-1" d="M100.91,68.37c1.92,4.34,3.8,8.6,6,12.78l-.51-3.85-.08.26,3.49-3.49a70.36,70.36,0,0,1-6.85,2.1h2.66l-.24-.09,3,2.3a46,46,0,0,0-3.22-3.9l.78,6.06a11.58,11.58,0,0,0,1.64-6.64c-.08-1.13-.34-2.25-.49-3.37-.07-.52.14-2.12-.22-1.07L103.41,73c1.4-.28,2.34-1.71,2.82-2.22-.34.35.87-.62.9-.64a5.53,5.53,0,0,0,1.3-1.43l-3,2.3.09,0-5.65-2.3h0a5.17,5.17,0,0,0,5.64,2.3c.34-.1.68-.19,1-.26,6.27-1.44,3.62-11.09-2.66-9.64-.34.07-.69.16-1,.26l5.65,2.3h0c-1.24-1.71-3.44-3.07-5.65-2.29a5.48,5.48,0,0,0-3.09,2.35l1.8-1.8a8.78,8.78,0,0,0-3.81,3.77l3-2.3C98.13,63.85,97,66.57,97,69c0,2,1.35,4.79.38,6.54a5.17,5.17,0,0,0,.78,6.06c2,2.3,3.69,5,7.54,4.26,2.77-.53,7.7-1.56,9.45-3.89,2.45-3.29,0-6.43-1.49-9.49s-2.73-6.06-4.07-9.1c-1.09-2.48-4.7-3-6.84-1.8C100.16,63,99.82,65.89,100.91,68.37Z"/><path class="cls-1" d="M130.45,70.54c.4,1.42.08.44.06-.07s0-.84,0-1.26a21.53,21.53,0,0,0-.23-3.2v2.66l0-.19L124.12,72c1.77.39,3.57.62,5.36.93l-3-2.3.08.12.79-6.06c.18-.21.92-.68.29-.2l-.61.46L125.54,66a14.19,14.19,0,0,1-2.43,1.57,5,5,0,0,0-2.3,3,5.12,5.12,0,0,0,.5,3.85,5.06,5.06,0,0,0,3,2.3,5.93,5.93,0,0,0,3.86-.5,15.62,15.62,0,0,0,2.76-1.81,18.8,18.8,0,0,0,3.51-2.65c1.33-1.57,2.13-4.18.78-6a5.76,5.76,0,0,0-3.07-2.42,16.78,16.78,0,0,0-1.86-.31c-1.17-.18-2.34-.37-3.5-.62-2.38-.52-5.76.7-6.15,3.49l-.21,1.52c.24,1.57.25,1.77,0,.61a10,10,0,0,1,0,1.47,15.89,15.89,0,0,0,.34,3.78,5,5,0,0,0,9.64-2.66Z"/><path class="cls-1" d="M111,76.94l-.21.13h5l.35.28L115,76.46c-.3-.22-1.15-1-.08,0l1.28,2.2,0-.16-.51,3.85c-.72.88-.62.72.33-.46.68-.93.08-.53-1.78,1.21a9.36,9.36,0,0,0,1.65-.67c1.36-.56,2.7-1.17,4.06-1.74l-7.35-3c.08-1.81,0-2.27-.09-1.39-.15.52-.08.44.19-.26L117,73.56a8.63,8.63,0,0,0-5.63,1.64,7.41,7.41,0,0,0-2.79,5.91l.68-2.52-.07.14c-1.19,2.33-.69,5.53,1.79,6.84,2.29,1.21,5.58.7,6.84-1.79a10.92,10.92,0,0,0,.76-2.67c-.16.76-.19.94-.09.55s0-.21-.18.45l-1.14,1.18c-.73.23-.84.27-.31.14l-.59.12H117a4.93,4.93,0,0,0,4.32-2.48,9.76,9.76,0,0,0,.91-6.06,4.73,4.73,0,0,0-2.9-3.24,5.26,5.26,0,0,0-4.45.25l-1.63.71-.63.28c.5-.22-.35.14-.44.18a17.94,17.94,0,0,0-2.36,1,6.13,6.13,0,0,0-1.24,1c-.34.36-.65,1.16-1,1.42l.38-.47-.78,1a6,6,0,0,0-.62,1.4,5.44,5.44,0,0,0,.55,4,6.87,6.87,0,0,0,2.43,2.27c.59.35-.65-.55-.12-.1a11.59,11.59,0,0,0,1.38,1,5,5,0,0,0,5,0l.21-.14c2.2-1.41,3.3-4.5,1.79-6.84A5.07,5.07,0,0,0,111,76.94Z"/><path class="cls-1" d="M120.63,28.83c.72,1.18,3.36,4.55,3.13,5.46s-1.13.63-.32.68c-1.28-.09-2.72-1-3.91-1.49l2.21,1.28c-.68-.81-1.45-1.51-2.19-2.25l-1.19-1.24c-.92-1-1.06-1.1-.42-.31l-1.79,6.84a64.41,64.41,0,0,0,11.51-9.17l-7.86-1,.83,1.21c3.61,5.29,12.28.29,8.64-5l-.83-1.22c-1.77-2.59-5.48-3.46-7.86-1a51.83,51.83,0,0,1-9.48,7.6A5.15,5.15,0,0,0,109.31,36c.73,1.51,2.39,2.83,3.57,4a13.87,13.87,0,0,0,4.62,3.39c3.61,1.55,7.25,2.37,10.85.19a10.61,10.61,0,0,0,5.21-9.14c0-4.15-2.22-7.28-4.29-10.64C125.9,18.31,117.25,23.33,120.63,28.83Z"/><path class="cls-1" d="M120.58,21.56a51.83,51.83,0,0,1-9.48,7.6l6.06.79c-1-1-2-2.11-2.91-3.18l-1,7.85c1.82-1.24,3.42-2.57,4.14-4.74.5-1.49.9-4.82-.29-6.13-.22-.8-.4-.51-.54.88.16,0,.23-.08.23-.2s.62.35.68.39a9.53,9.53,0,0,1,2.34,2.8c3.61,5.29,12.28.29,8.64-5.05-3-4.45-7.26-9.1-13.25-8a11.15,11.15,0,0,0-7.31,4.94,7.57,7.57,0,0,0-1,4.36A9.67,9.67,0,0,0,107.3,26a12.08,12.08,0,0,1,.44,1.19c.23.92.38.52.46-1.22a5.09,5.09,0,0,0-1,7.85c1,1.07,1.88,2.17,2.91,3.18a5.1,5.1,0,0,0,6.06.78,64.86,64.86,0,0,0,11.51-9.17C132.14,24,125.07,16.93,120.58,21.56Z"/><path class="cls-1" d="M107.18,33.84c2.36,2.64,5,4.85,7.49,8l4.86-8.35A13,13,0,0,0,115,33c-.78.07-3.29.15-3.92.67-.44.36-.07-.2-.25.14,0-.06.48,1.69.46,1.59.16.56-1.24.67.12.17.62-.22,1.22-.63,1.81-.91,2.44-1.17,3.08-4.65,1.8-6.84A5.11,5.11,0,0,0,108.2,26c-2.38,1.13-4.52,2.52-5.8,4.92A8.39,8.39,0,0,0,103,40a9.68,9.68,0,0,0,7.57,3.66c2.15.06,4.24-1,6.31-.51,5.19,1.33,7.86-4.63,4.87-8.36A51.9,51.9,0,0,0,118.06,31c-.22-.22-.42-.46-.64-.69.94,1,.23.19-.26-.38-.93-1.08-2-2.11-2.91-3.18-1.79-2-5.23-1.83-7.07,0A5.1,5.1,0,0,0,107.18,33.84Z"/><path class="cls-1" d="M111.54,47.78c.39.07,1.39.07,1.69.35a1.94,1.94,0,0,1-1-.6c.37.39.3.29-.21-.28-.28-.72-.34-.82-.18-.29a3.19,3.19,0,0,1,.81-3.14c1.85-1,1.94-1.13.25-.35,1.51-.34,1.91-.5,1.19-.47-.37,0-.31,0,.18,0-.51-.18-.4-.12.35.17-.45-.27-.34-.16.32.32q-.56-.54.24.39c-.24-.45-.2-.32.15.39q-.36-1.77-.47,2.32A3.28,3.28,0,0,1,113.21,48c.22-.05.44-.12.66-.19h-2.66a5.23,5.23,0,0,0,4.19-.56,5,5,0,0,0,2-6.24c-1-2.46-3.39-3.27-5.9-2.89h0c-2.59.39-4.25,3.79-3.49,6.15.92,2.83,3.37,3.91,6.15,3.49h0l-3.85-9.14-.16.1,3.86-.5a7.38,7.38,0,0,0-6.62,1.84,6.73,6.73,0,0,0-1.82,6.37,8.52,8.52,0,0,0,7.82,6.49,9.4,9.4,0,0,0,2.94-.2,3.43,3.43,0,0,0,1.42-.54l-.78.38a5,5,0,0,0,2-1.08A6.91,6.91,0,0,0,121.74,46a8,8,0,0,0-2.41-5.5,9.37,9.37,0,0,0-5.13-2.32c-2.57-.44-5.51.67-6.15,3.49C107.5,44.05,108.78,47.31,111.54,47.78Z"/><path class="cls-1" d="M61,27.66v.13l.18-1.33c-.1.28-.21.55-.3.82a3.78,3.78,0,0,0-.09,2,4.53,4.53,0,0,0,1.88,3.26,3.89,3.89,0,0,0,1.7.9l1.33.17a5,5,0,0,0,2.53-.68l1-.78a4.89,4.89,0,0,0,1.28-2.21c.06-.17.12-.34.19-.51A4.84,4.84,0,0,0,71,27.66a3.78,3.78,0,0,0-.44-1.93,4.45,4.45,0,0,0-2.64-2.64A3.74,3.74,0,0,0,66,22.66l-1.33.18a5,5,0,0,0-2.21,1.28l-.78,1A5,5,0,0,0,61,27.66v.13l.18-1.33c-.1.28-.21.55-.3.82l9.64,2.66c.06-.17.12-.34.19-.51A4.84,4.84,0,0,0,71,27.66a3.78,3.78,0,0,0-.44-1.93,4.45,4.45,0,0,0-2.64-2.64A3.74,3.74,0,0,0,66,22.66l-1.33.18a5,5,0,0,0-2.21,1.28l-.78,1A5,5,0,0,0,61,27.66Z"/><path class="cls-1" d="M61,27.6h0a5,5,0,0,0,.69,2.52,5.06,5.06,0,0,0,1.79,1.8,5,5,0,0,0,5.05,0h0a5,5,0,0,0,1.8-1.79,3.75,3.75,0,0,0,.59-1.86,3.75,3.75,0,0,0-.09-2,5,5,0,0,0-1.28-2.21,3.84,3.84,0,0,0-.52-.4,3.42,3.42,0,0,0-1.7-.89L66,22.59a6,6,0,0,0-1.33.18,3.72,3.72,0,0,0-1.7.89,3.86,3.86,0,0,0-1.29,1.4,10.47,10.47,0,0,0-.5,1.2L61,27.59a3.45,3.45,0,0,0,.18,1.34,3.83,3.83,0,0,0,.9,1.7,3.86,3.86,0,0,0,1.4,1.29,3.75,3.75,0,0,0,1.86.59,3.75,3.75,0,0,0,2-.09l1.2-.5a5.06,5.06,0,0,0,1.79-1.8l.51-1.19a5.21,5.21,0,0,0,0-2.66h0L71,27.59h0l-.18,1.33h0l-3.49,3.49h0l-3.85-.5h0l-1-.79h0l1-7.85h0L71,27.6h0a3.68,3.68,0,0,0-.43-1.93A4.45,4.45,0,0,0,67.94,23,3.77,3.77,0,0,0,66,22.6l-1.33.18a5,5,0,0,0-2.2,1.28l-.78,1A5,5,0,0,0,61,27.6Z"/><path class="cls-1" d="M78.58,21.45c-1.82-1.12-3.68-2.22-5.42-3.47-2.14-1.52-5.66-.44-6.84,1.8-1.38,2.6-.47,5.19,1.79,6.84,1.1.8,2.24,1.52,3.39,2.24l1.37.85c.63.39,2.86,1.5.67.37,2.32,1.2,5.53.68,6.84-1.79,1.21-2.29.69-5.56-1.8-6.84a9.35,9.35,0,0,0-1.34-.58c1.09.52,1.44.66,1.06.44a3.85,3.85,0,0,0-.38-.23l-1.37-.85c-1.15-.72-2.3-1.45-3.39-2.25l-5,8.64c1.74,1.25,3.6,2.34,5.43,3.46a5,5,0,1,0,5-8.63Z"/><path class="cls-1" d="M63.89,23.6l1,.78.09.06.17.11.33.23a5.62,5.62,0,0,0,3.85.5,3.72,3.72,0,0,0,1.7-.89A3.89,3.89,0,0,0,72.33,23l.5-1.19a5,5,0,0,0,0-2.66l-.5-1.19a5.17,5.17,0,0,0-1.8-1.8l-.58-.4a5.64,5.64,0,0,0-3.86-.5,3.77,3.77,0,0,0-1.7.89,3.89,3.89,0,0,0-1.29,1.41l-.5,1.19a5,5,0,0,0,0,2.66l.5,1.19a5.09,5.09,0,0,0,1.8,1.8l.59.4,5-8.64-.58-.4,1,.79h0a3.77,3.77,0,0,0-1.61-1,3.77,3.77,0,0,0-1.93-.43,3.72,3.72,0,0,0-1.92.43,3.71,3.71,0,0,0-1.61,1l-.79,1a5,5,0,0,0-.68,2.52l.18,1.33A5.05,5.05,0,0,0,63.89,23.6Z"/><path class="cls-1" d="M94.39,65c-2.19-3.29-5.18-5.87-8.1-8.47a5.09,5.09,0,0,0-7.85,1c-2.08,3-3.89,6.24-5.93,9.29s-3.9,4.89-4.85,8.67c-1.43,5.7-1.48,14.39,6,15.67,6.42,1.11,9.64-5.21,12.14-9.93,2.11-4,5.24-6.71,8.2-10s.79-8.09-3.53-8.54l-.22,0,3.53,1.47L93.61,64c-5-4-12.06,3-7.07,7.07a6.46,6.46,0,0,0,3.9,1.6L86.9,64.09c-2.82,3.17-6,5.93-8.3,9.55-1.13,1.79-1.92,3.73-3,5.55A20.2,20.2,0,0,1,74.51,81c1.73,1.58,2.49,1.57,2.3,0,.85-1.14.92-4.52,1.47-6l-2.3,3c2.39-1.35,4.14-4.62,5.67-6.78,1.95-2.78,3.5-5.8,5.42-8.58l-7.85,1c2.22,2,4.86,3.93,6.53,6.45C89.3,75.34,98,70.34,94.39,65Z"/><path class="cls-1" d="M46.68,23.66c.3,9.21,5.8,15.14,13.89,18.84,3,1.39,6.25.3,7.34-3h0a5,5,0,0,0-1.28-4.87h0l1.28,4.87C69.15,36,71.11,31.37,71,27.6l-2.47,4.32A5.21,5.21,0,0,0,71,27.6l-2.47,4.32c1.88-.9,2.15-2.82,2.58-4.57.38-1.52-.08-1,.54-2.76a13.27,13.27,0,0,0,.67-5.19c-.17-1.26-.82-1.81-1.37-2.87.84,1.61,1,.91.29.33-2.36-2-5-3.89-7.4-5.9-1.56-1.28-4.21-2.18-6.06-.78-4.23,3.2-11.17,7.62-11.11,13.48.07,6.43,10.07,6.45,10,0V22.52L55.2,26.06a51.91,51.91,0,0,1,7.64-7.25L56.78,18c2,1.62,3.93,3.34,6,4.77,1.49,1-.86-1.12,1.06.8L62.6,18.73c-.42,2-.82,4.06-1.15,6.08-.11.85-.23,1.69-.33,2.54.25,2.13.27,1.77.08-1.08l2.3-3h0A4.94,4.94,0,0,0,61,27.6h0l2.48-4.32a6,6,0,0,0-2.3,3c-.77,1.69-.3,1-.36,1.29a96.15,96.15,0,0,1-2.56,9.3,5,5,0,0,0,1.28,4.86h0l-1.28-4.86h0l7.34-3c-4.65-2.13-8.75-4.6-8.93-10.21C56.47,17.24,46.47,17.21,46.68,23.66Z"/><path class="cls-1" d="M82.69,49l-.4.43,3.54-1.46c-1.82,0-4.16-1.08-5.89-1.59s-4.37-.88-6-1.81a5,5,0,0,0-7.35,3,20.89,20.89,0,0,0-.25,7.68c.25,1.75,2,3,3.49,3.5,3.83,1.34,6.84,3.7,10.35,5.57a5.08,5.08,0,0,0,6.84-1.79c.58-1.09,1.14-2.17,1.67-3.28.25-.52,1.62-2.42.15-1.71L85,58a70.18,70.18,0,0,0,10.93,2c3,.21,6-3.4,4.82-6.33-1.87-4.9-5.58-8.26-10.1-10.77-2.69-1.49-6.65-.26-7.35,3a33,33,0,0,1-1.91,5.34c-2.42,6,7.25,8.55,9.64,2.66A33,33,0,0,0,93,48.49l-7.34,3c1.92,1.07,4.66,2.58,5.51,4.8L95.94,50c-3.79-.27-8.5-3-12.12-1.11-3,1.53-3.9,5.79-5.4,8.58l6.84-1.79c-4.32-2.31-8-4.93-12.74-6.59L76,52.53a10.48,10.48,0,0,0,.25-2.36l-7.34,3c3.41,2,8.1,2.81,11.9,3.81,3.2.83,6.39,1.85,8.94-.94C94.09,51.29,87,44.2,82.69,49Z"/><path class="cls-1" d="M77.22,77c2.31-2.94,4.57-5.92,6.59-9.07,1.61-2.54,4.63-6.1,3.76-9.28-.71-2.58-4-4.27-6.14-5.55A49.37,49.37,0,0,0,72.52,49c-3.33-1.17-6.06,1.83-6.33,4.82a18.65,18.65,0,0,0,1.64,8.64c1.46,3.73,1.88,5.87.81,9.76A5.05,5.05,0,0,0,76,77.91l.23-.13c5.6-3.16.57-11.8-5-8.63l-.23.12,7.35,5.65c1-3.82,1.78-7.5.63-11.41-1-3.25-3-6.14-2.72-9.65l-6.33,4.83c3.85,1.35,6.82,3.69,10.35,5.57l-2.3-3,0,.08.51-3.85c-2.85,4.12-5.18,8.46-8.29,12.43C66.22,74.93,73.25,82.06,77.22,77Z"/><path class="cls-1" d="M86.34,48.16c-3.15,0-4.45,2.05-5.59,4.58-1,2.18-3,4.74-3,7.2,0,3,2.55,4.43,4.47,6.23,1.44,1.36,2.62,2.89,4,4.34,4.25,4.65,8.44.43,11.29-3.24,3.43-4.42,5.25-9.49,2.82-14.85A5,5,0,0,0,95.94,50a43.8,43.8,0,0,1-8.27-1.61C81.42,46.83,78.75,56.47,85,58a56.74,56.74,0,0,0,10.93,2l-4.31-2.48c.45,1-3,5.27-3.72,5.84l2.53-.69-.22,0,3.53,1.47c1.49,1.21-.6-.74-1-1.16-.68-.83-1.36-1.62-2.1-2.39-1.4-1.43-2.93-2.69-4.41-4l1.29,2.2,0-.08-.51,3.86c.59-1.08,1.14-2.17,1.67-3.28.23-.49.81-2.41.89-2.5l-3.53,1.47h.26C92.78,58.26,92.78,48.26,86.34,48.16Z"/><path class="cls-1" d="M76.2,45.8a3.6,3.6,0,0,0,.9,1.71,3.51,3.51,0,0,0,1.41,1.29,3.65,3.65,0,0,0,1.86.59,3.75,3.75,0,0,0,2-.09l1.19-.5A3.73,3.73,0,0,0,85,47.51a2.5,2.5,0,0,0,.64-1.1A3.77,3.77,0,0,0,86,44.48l-.18-1.33A5,5,0,0,0,84.57,41h0a3.8,3.8,0,0,0-1.61-1,4.52,4.52,0,0,0-3.85,0,3.8,3.8,0,0,0-1.61,1l-.78,1A5,5,0,0,0,76,44.47l.18,1.33A5,5,0,0,0,77.49,48h0l6-7.86h0l2.3,3h0a3.87,3.87,0,0,0-.9-1.71,4.53,4.53,0,0,0-3.26-1.88,3.78,3.78,0,0,0-2,.09l-1.19.51A5,5,0,0,0,76.71,42l-.51,1.2A5,5,0,0,0,76.2,45.8Z"/><path class="cls-1" d="M82.07,23.53c-1.24-.71-2.47-1.46-3.69-2.21a4.92,4.92,0,0,0-5,0c-.85.6-2.91.54-3.92.73s-1.79.28-2.65.51c-1.57.44-2.58-.12.59.41a5.16,5.16,0,0,0-6.15,3.49c-1.21,3.37-1.74,7-2.93,10.4a5,5,0,0,0,1.28,4.86c1.61,1.6,4.18,2.08,5.64,3.82,1.93,2.29,1.59,5.29,4.83,6.65,2.78,1.17,6.55-.34,9.33-1A33.18,33.18,0,0,0,86,49.43c4.32-1.9,2.39-7.84-1.2-9.14A35.48,35.48,0,0,0,80,39.05c-1.72-.35-4.76-1.55-6.48-1.47l.35,1.59a8.32,8.32,0,0,1,1.33-1.51,19.6,19.6,0,0,1,2.63-2,45.21,45.21,0,0,0,5.74-4c2.24-2.13,1.83-6.39-1-7.85l-.45-.24c-5.6-3.18-10.65,5.46-5,8.64l.44.24-1-7.86c-1.77,1.69-6.36,3.91-8.84,6.49C65,33.82,62.83,37.49,64.05,41.4c2.24,7.23,12.27,6.43,18.07,8.54L80.93,40.8c-2.22,1-6.42,1.5-9,1.82l3.54,1.47c.51,1.07.52.9,0-.5-.31-.77-.64-1.52-1-2.26a14.15,14.15,0,0,0-2.24-2.86c-1.61-1.56-4.19-2.37-5.64-3.82l1.28,4.87c1.19-3.41,1.72-7,2.93-10.4l-6.15,3.49c2.36.4,4.59-.4,6.91-.83s4.87-.48,6.78-1.82h-5c1.23.74,2.45,1.49,3.7,2.21C82.62,35.38,87.66,26.74,82.07,23.53Z"/><path class="cls-1" d="M68.82,32.15c-2.13.92.47.08,1.12,0,1-.2,2-.38,2.94-.56,2.48-.45,4.47-.64,6.51-2.37S81,24,79.39,22.1c-1-1.2-2.91-2.05-4.25-2.88-1.78-1.1-3.47-2.3-5.19-3.48-2.82-1.91-6.39.13-7.35,3a29.36,29.36,0,0,0-.82,4.56c-.27,1.44-.57,2.84-.76,4.31l2.48-4.32A5,5,0,0,0,61,27.79c0,2,1.5,4.46,3.67,4.82l.28,0c2.66.45,5.38-.7,6.15-3.49.66-2.4-.81-5.7-3.49-6.15L67.35,23,71,27.79V27.6l-2.47,4.32a5.38,5.38,0,0,0,2-2.4c.1-.24.65-2.67.42-1.69.08-.33.17-.65.24-1,.19-.86.32-1.73.47-2.6.07-.46.15-.91.21-1.37.17-1.38.23-1.77.17-1.16,0,.33,0,.22.14-.33l-7.34,3c1.58,1.08,3.13,2.2,4.76,3.21l2.1,1.3a7.89,7.89,0,0,0,1,.63c.76.35-.58-.52-.43-.35V22.1l-.36.3,2.21-1.28a28.26,28.26,0,0,1-5,1,24.67,24.67,0,0,0-5.38,1.43c-2.49,1.06-3,4.72-1.8,6.84C63.49,32.93,66.33,33.22,68.82,32.15Z"/><path class="cls-1" d="M79.52,41c-1.52.25-3,.62-4.48,1-.81.16-1.63.32-2.44.46-1.3.36-1.6.39-.89.09L75.24,44l-.37-.46c-2.73-3.36-8.76-.59-8.54,3.54.14,2.49.38,4.81,2.8,6.18,2.78,1.58,6.5,2.25,9.56,3.1,2.78.78,6.25,2.3,9.07,1.12,3.16-1.34,4.53-5.93,5.19-9a5.14,5.14,0,0,0-2.29-5.64,18.49,18.49,0,0,0-6.54-2.65,8.92,8.92,0,0,0-3,.51c.31-.09-1.26.26-1.56.33-6.23,1.59-3.59,11.24,2.66,9.65A19.92,19.92,0,0,0,86,49.43l-3.86.51a17,17,0,0,1,3.49,1.54l-2.3-5.65a16.84,16.84,0,0,1-.78,2.47c-.23.6-1.37,2.33-.24,1.09l3.54-1.46c-1.87,0-4.29-1.13-6.07-1.64s-4.31-.9-5.79-1.76l2.47,4.31c0-.58-.07-1.16-.11-1.74L67.8,50.63c3.28,4,10.28.71,14.38.06,2.68-.44,4.12-3.75,3.49-6.15C84.92,41.69,82.17,40.62,79.52,41Z"/><path class="cls-1" d="M62.18,22.31c2.47,1.85-.66-.42,1.71,1.29,1,.69,1.91,1.38,2.88,2,2.65,1.85,5.35,3.59,8.13,5.26,2.26,1.36,4.28,2.74,7,1.75,3.39-1.22,7.14-5,9.19-7.79C95.32,19,93.88,9.58,85.83,8.14a16,16,0,0,0-5,0c-1.09.15-2.13.43-3.2.64,1.68-.33-1,.42-.69.16l-1.33.18L78.07,11c1.26,1.45-1,1.31,1.14,1.29,2,0,4.9-1.46,6.5-2.53,5-3.31,1.65-9.94-3.85-9.14a55.22,55.22,0,0,0-24.07,9.6c-2.38,1.68-3.7,5.64-1,7.85,1.77,1.46,3.58,2.88,5.4,4.28,5.11,3.91,10.1-4.77,5.05-8.63C66.08,12.8,65,11.89,63.85,11l-1,7.85a48.91,48.91,0,0,1,21.68-8.59L80.67,1.08C77.05,3.5,72.44,3.15,69.73,7.19c-2,3-2.16,7.26.48,9.91A7.76,7.76,0,0,0,76,19.16c1.62-.07,1.29-.42-.13-.3a30.08,30.08,0,0,0,3.53-.2,26.86,26.86,0,0,1,3-.69c3.22-.26,1.3-.1.72.86-1.21,2-3.74,3.7-5.7,4.94h5a82.71,82.71,0,0,1-9-5.53c-.44-.3-.85-.62-1.28-.93s-3-1.88-1.13-.51c1.55,1.15.14-.11-.26-.44-1.14-1-2.43-1.78-3.63-2.68C62.08,9.81,57.09,18.49,62.18,22.31Z"/><path class="cls-2" d="M38,141.37H29.36V108.14a2.15,2.15,0,1,0-4.3,0v33.23H16.45V108.14a2.16,2.16,0,0,0-3.56-1.66l-.15.12v0l-.12.12v0h0l-.09.15q.06-.09,0,0l-.09.15v0l-.09.15,0,.09,0,.12s0,0,0,.12l0,.09a.49.49,0,0,1,0,.12v.09a.73.73,0,0,0,0,.22v33.23H3.5V108.11a10.42,10.42,0,0,1,3.16-7.59,10.44,10.44,0,0,1,7.59-3.16h.42a10.45,10.45,0,0,1,6.08,2.17,10.75,10.75,0,0,1,14.09,1A10.37,10.37,0,0,1,38,108.14Z"/><path class="cls-2" d="M47.71,141.43H41v-33.6h6.72Z"/><path class="cls-2" d="M67.1,107.85v33.53H60.4V129.56L57,121.69v19.69H50.34V107.85H57V108l3.37,7.86v-8Z"/><path class="cls-2" d="M72.46,100.49a10.79,10.79,0,0,1,18.42,7.65V141.4H82.24v-8.64h-4.3v8.64H69.3V108.14A10.42,10.42,0,0,1,72.46,100.49Zm9.78,23.63v-16a2.09,2.09,0,0,0-.63-1.54,2,2,0,0,0-1.5-.63,2.15,2.15,0,0,0-2.17,2.17v16Z"/><path class="cls-2" d="M108.35,109.68a8.17,8.17,0,0,1,2.36,5.85V119H104v-3.42a1.61,1.61,0,0,0-.49-1.19,1.58,1.58,0,0,0-1.17-.49,1.66,1.66,0,0,0-1.07.37.34.34,0,0,0-.12.12l-.12.12-.09.14v0a.28.28,0,0,0-.07.09l0,0s0,.09,0,.14,0,0-.05.07l0,.07a.42.42,0,0,1,0,.09c0,.06,0,.09,0,.07v.12s0,.06,0,0v18.14a1.67,1.67,0,0,0,1.68,1.68H104V131.8H102.4v-6.72h8.31v16.44l-8.07.37h-.35a8.38,8.38,0,0,1-8.36-8.38v-18a8.4,8.4,0,0,1,8.36-8.36h.35A8.06,8.06,0,0,1,108.35,109.68Z"/><path class="cls-2" d="M129.89,107.85v25.87a8.39,8.39,0,0,1-16.77,0V107.85h6.72v25.87a1.71,1.71,0,0,0,1.67,1.67,1.63,1.63,0,0,0,1.19-.5,1.56,1.56,0,0,0,.49-1.17V107.85Z"/><path class="cls-2" d="M134.66,109.59A8.4,8.4,0,0,1,149,115.53V141.4h-6.72v-6.72h-3.35v6.72H132.2V115.53A8.09,8.09,0,0,1,134.66,109.59ZM142.27,128V115.53a1.67,1.67,0,0,0-1.66-1.68,1.63,1.63,0,0,0-1.2.49,1.65,1.65,0,0,0-.49,1.19V128Z"/><path class="cls-2" d="M165.89,109.7a8.13,8.13,0,0,1,2.34,5.83V119h-6.69v-3.44a1.67,1.67,0,0,0-1.69-1.66,1.58,1.58,0,0,0-1,.38.43.43,0,0,0-.12.11h0l-.1.12h0l-.07.12v0h0a.88.88,0,0,0-.07.12s0,0,0,0a.88.88,0,0,0-.07.12l0,.07,0,.09,0,.1,0,.07a.23.23,0,0,1,0,.09V123a1.63,1.63,0,0,0,.49,1.2,1.66,1.66,0,0,0,1.17.47l.31,0a8.38,8.38,0,0,1-.31,16.76h-8.38v-6.72h8.38a1.67,1.67,0,1,0,0-3.34h-.33a8.43,8.43,0,0,1-8.05-8.36v-7.47a8.4,8.4,0,0,1,8.36-8.36h.33A8.12,8.12,0,0,1,165.89,109.7Z"/><path class="cls-1" d="M78.69,6.24a49.48,49.48,0,1,1-25.1,14.42C66.75,9,79.17,6.8,78.69,6.24Z"/><path class="cls-3" d="M138.57,65c-1.77,12.62-9.38,22.51-20.21,29.84-4.88,3.31-9.77,6-15.65,6.43-14.18,1.08-21.53-4.17-26.25-17.75-2.79-8,.32-14.9,5.44-20.92,4.39-5.16,9.83-9.37,14-14.76a16.69,16.69,0,0,0,2.59-4c7-12.4-1.66-36.66-15.83-38.25C104.36,1.75,144.92,16.31,138.57,65Z"/><path class="cls-4" d="M120.41,93.36c-.18-.24-.45-.69-.62-.93a9.36,9.36,0,0,0-1-1.35c.16-.55.48-1,.69-1.56a4.75,4.75,0,0,0,.43-3.19,3.09,3.09,0,0,0-1.58-2,3.54,3.54,0,0,1-1.56-1.2,1.73,1.73,0,0,1-.16-1.64c.22-.54.62-1,.86-1.48a1.69,1.69,0,0,0,.08-1.15c-.07-.35-.39-.21-.56-.35a4.34,4.34,0,0,0,.37-1.26,1.71,1.71,0,0,0,0-1l.06-.09s0,0,.07,0c1-.47,2.09-1,3.11-1.52.72-.38,1.44-.75,2.15-1.15.5-.28,1-.6,1.49-.88a8.56,8.56,0,0,1,1.25-.71c.08.07.06.17.06.27.05.65.09,1.31.15,2,.16,1.78.34,3.55.63,5.32.11.68.22,1.36.32,2,.14,1,.34,2,.51,2.93a8.82,8.82,0,0,0,.42,1.74,4.06,4.06,0,0,1,.14.71,1.69,1.69,0,0,1-.55.69c-.64.61-1.27,1.24-1.94,1.81a20,20,0,0,1-1.59,1.3C123.59,90.84,120.79,93.22,120.41,93.36Z"/><path class="cls-5" d="M127.77,87a4.06,4.06,0,0,0-.14-.71,8.82,8.82,0,0,1-.42-1.74c-.17-1-.37-2-.51-2.93-.1-.68-.21-1.36-.32-2-.29-1.77-.47-3.54-.63-5.32-.06-.65-.1-1.31-.15-2,0-.1,0-.2-.06-.27l.09-.14a5.5,5.5,0,0,0,1.25-.76c.91-.61,1.79-1.24,2.68-1.88.42-.29.82-.61,1.23-.91.12-.09.14-.15,0-.24a7.44,7.44,0,0,1,1.16.23,12.85,12.85,0,0,1,3,1,7.1,7.1,0,0,1,1.54,1c.2.17.55.42.76.59a33.68,33.68,0,0,1-1.62,4.25c-.56,1.24-1.13,2.46-1.79,3.64-.48.85-1,1.69-1.49,2.53a29.16,29.16,0,0,1-2.23,3.09c-.61.75-1.26,1.47-1.9,2.2C128.08,86.77,128,87,127.77,87Z"/><path class="cls-6" d="M99.47,80.12a10.4,10.4,0,0,0,2-1.9c.06-.07.11-.14.17-.2l.53.6c.24.29.47.59.72.87s.68.78,1,1.18c.11.13.19.38.4.32.38-.12.77-.17,1.15-.28l4.25-1.31c.49-.15,1-.35,1.45-.51.17-.06.16-.13.09-.26-.44-.79-.83-1.6-1.28-2.38-.66-1.13-1.18-2.33-1.73-3.51-.37-.77-.7-1.56-1.06-2.34-.46-1-.89-2-1.31-3-.21-.51-.44-1-.66-1.52a2.42,2.42,0,0,1,1-.23,12.11,12.11,0,0,1,4.2.24,5.41,5.41,0,0,1,2.84,1.56,2.23,2.23,0,0,1,.64,2,6.67,6.67,0,0,0-.14,2.44,6.23,6.23,0,0,0,1,2.43,4.5,4.5,0,0,0,.78.85,2,2,0,0,0,1.85.48,1.12,1.12,0,0,1,.06.63l-.06.09c-1.65.69-3.26,1.46-4.94,2.06a.77.77,0,0,0-.45.36,3.33,3.33,0,0,1-.55.83c-.2.24-.14.36.1.53a12.61,12.61,0,0,1,1.49,1.12c.19.18.3.18.45,0,0,.6.06,1.21.14,1.81a5.27,5.27,0,0,1,0,1.68,2.62,2.62,0,0,1-1.36,2.06,2.27,2.27,0,0,1-1.26.11,8.28,8.28,0,0,0-3,.25,21.75,21.75,0,0,0-4.61,2.09c-.15-.07-.17.1-.26.14a0,0,0,0,0,0,0l-1.33.62a10.24,10.24,0,0,1-5,1.09,5.15,5.15,0,0,1-2.62-.73,2.93,2.93,0,0,1-1.29-3,5.79,5.79,0,0,1,.56-1.8,5,5,0,0,1,.43-.81l.11-.15a3.7,3.7,0,0,0,.27-.36l.13-.16.2-.24a14.44,14.44,0,0,1,1.75-1.56c.36-.25,2.59-1.72,2.91-2C99.37,80.23,99.42,80.17,99.47,80.12Z"/><path class="cls-7" d="M117.47,76.26a1.12,1.12,0,0,0-.06-.63l.08,0c.52-.2.64-.48.37-1s-.44-.8-.7-1.18a4,4,0,0,1-.52-2.42,13.27,13.27,0,0,0,0-2.52,2.23,2.23,0,0,0-.85-1.45,13.24,13.24,0,0,0-2.37-1.36,9.35,9.35,0,0,1-2-1.17A1.37,1.37,0,0,1,110.9,63a1.18,1.18,0,0,1,1.16-.85,5.5,5.5,0,0,1,1.46.1l.32,0c.69.22,1.39.38,2.06.63a6.14,6.14,0,0,1,.59.25c.08.07,3.49,1.59,3.59,1.54a37.33,37.33,0,0,0,4.68,2.2c.23.06.46.15.69.23-.08.13,0,.25,0,.38,0,1.26,0,2.52.11,3.78,0,.19,0,.38.07.56l-.09.14a8.56,8.56,0,0,0-1.25.71c-.51.28-1,.6-1.49.88-.71.4-1.43.77-2.15,1.15-1,.55-2.06,1-3.11,1.52C117.52,76.28,117.49,76.26,117.47,76.26Z"/><path class="cls-4" d="M105.23,65.85c.22.51.45,1,.66,1.52.42,1,.85,2,1.31,3,.36.78.69,1.57,1.06,2.34.55,1.18,1.07,2.38,1.73,3.51.45.78.84,1.59,1.28,2.38.07.13.08.2-.09.26-.49.16-1,.36-1.45.51l-4.25,1.31c-.38.11-.77.16-1.15.28-.21.06-.29-.19-.4-.32-.34-.4-.66-.8-1-1.18s-.48-.58-.72-.87l-.53-.6a6.06,6.06,0,0,0,1-3.58c0-.73-.22-1.42-.3-2.14-.1-.89-.4-1.76-.45-2.66a10.12,10.12,0,0,1,.1-1.36s.08-.09,0-.15h0a2.79,2.79,0,0,1,.9-1.3,11.27,11.27,0,0,1,1.11-.67v0a.07.07,0,0,0,.09,0h0C104.56,66.08,104.87,65.85,105.23,65.85Z"/><path class="cls-8" d="M125.63,71.87c-.12-.18-.06-.37-.07-.56-.09-1.26-.11-2.52-.11-3.78,0-.13-.08-.25,0-.38,1.77.4,3.57.61,5.36.93.12.09.1.15,0,.24-.41.3-.81.62-1.23.91-.89.64-1.77,1.27-2.68,1.88A5.5,5.5,0,0,1,125.63,71.87Z"/><path class="cls-7" d="M113.51,81.26c-.15.17-.26.17-.45,0a12.61,12.61,0,0,0-1.49-1.12c-.24-.17-.3-.29-.1-.53a3.33,3.33,0,0,0,.55-.83.77.77,0,0,1,.45-.36c1.68-.6,3.29-1.37,4.94-2.06a1.71,1.71,0,0,1,0,1,4.34,4.34,0,0,1-.37,1.26,9,9,0,0,0-1.47,0,1.74,1.74,0,0,0-.89.36,2.34,2.34,0,0,0-1.06,2.14Z"/><path class="cls-9" d="M125,26.31c.44.71.87,1.43,1.32,2.13a12.4,12.4,0,0,1,2,4,7.32,7.32,0,0,1-.08,4,10.44,10.44,0,0,1-.46,1l-.28.38a6.89,6.89,0,0,1-2.06,1.69,4.4,4.4,0,0,1-1.14.39,5.79,5.79,0,0,1-3.38-.41c-.91-.38-1.78-.86-2.72-1.17a14.23,14.23,0,0,0-1.79-1.85c-.8-.81-1.57-1.65-2.39-2.46-.15-.14-.38-.25-.39-.51.56-.37,1.14-.72,1.69-1.11,1.17-.83,2.35-1.63,3.48-2.52.83-.66,1.67-1.32,2.47-2,1-.87,2-1.76,2.85-2.72Z"/><path class="cls-4" d="M124.12,25.1c-.9,1-1.86,1.85-2.85,2.72-.8.71-1.64,1.37-2.47,2-1.13.89-2.31,1.69-3.48,2.52-.55.39-1.13.74-1.69,1.11-1.07-1-1.94-2.12-2.91-3.18a8.25,8.25,0,0,0,1.39-1.06,3.1,3.1,0,0,0,.58-3c-.21-.82-.63-1.57-.82-2.4A2.74,2.74,0,0,1,113,21.09a9,9,0,0,1,1.9-1.28,4.66,4.66,0,0,1,3.75-.1,10.57,10.57,0,0,1,3.21,2.44A24.88,24.88,0,0,1,124.12,25.1Z"/><path class="cls-10" d="M110.72,30.3c1,1.06,1.84,2.21,2.91,3.18a26.67,26.67,0,0,0,2.78,3,14.23,14.23,0,0,1,1.79,1.85c-.13-.06-.72-.17-1-.25a5.77,5.77,0,0,0-2.89,0,21,21,0,0,1-2.93.54h-1.08l-1.37-.26c-.37-.24-.81-.31-1.17-.59a3.57,3.57,0,0,1-1.46-2.46,4.55,4.55,0,0,1,1.13-3,6.6,6.6,0,0,1,2-1.43C109.87,30.7,110.3,30.51,110.72,30.3Z"/><path class="cls-4" d="M112.87,43a8.57,8.57,0,0,1,2.1.5,2.91,2.91,0,0,1,1.72,2.17,1.86,1.86,0,0,1-1,2.13c-.14.07-.32,0-.41.12a4.6,4.6,0,0,1-2.3-.05A3.19,3.19,0,0,1,110.41,45a1.48,1.48,0,0,1,.83-1.51,7.62,7.62,0,0,1,1.3-.43.23.23,0,0,0,.33,0Z"/><path class="cls-1" d="M66,27.66v.13c-.1.28-.21.55-.3.82.09-.27.2-.54.3-.82Z"/><path class="cls-1" d="M66,27.6h0S66,27.58,66,27.6Z"/><path class="cls-1" d="M76.06,25.76C74,24.49,71.61,23,70.64,22.3c1.57,1.17,5.13,3.33,5.2,3.36Z"/><path class="cls-1" d="M67.42,20.06h0l.59.4Z"/><path class="cls-6" d="M90.07,67.48c-.08-.1-.13-.23-.21-.32-.81-.94-1.54-2-2.42-2.82-.57-.56-1.12-1.15-1.71-1.7-1-.9-2-1.71-3-2.62a14.8,14.8,0,0,0-1.34,2.12c-.79,1.49-1.7,2.91-2.62,4.32-1.59,2.42-3.32,4.74-5.12,7-.05.08-.09.19-.22.13A13.23,13.23,0,0,0,73,74.92a36.59,36.59,0,0,0-1.22,5.66c0,.45,0,.9,0,1.34a4.53,4.53,0,0,0,1.6,3.82.83.83,0,0,1,.57.35l1,.22.4,0,.57-.18,1.12-.63,1.09-1c.35-.24.46-.65.68-1A32.07,32.07,0,0,0,81,79.87a14.78,14.78,0,0,1,.88-1.81c.45-.86,1-1.68,1.46-2.52l.52-.69c.47-.59.92-1.21,1.43-1.77l1.67-1.8c.14-.2,1.38-1.39,1.81-1.84a19.77,19.77,0,0,0,1.72-1.82.32.32,0,0,1-.22,0A.35.35,0,0,1,90.07,67.48Z"/><path class="cls-4" d="M51.68,23.66c0,.35,0,2,.15,2.63a19.6,19.6,0,0,0,.87,2.93,19.86,19.86,0,0,0,1.44,2.59,16.63,16.63,0,0,0,3.33,3.32A37.68,37.68,0,0,0,62,37.7a3.72,3.72,0,0,0,1.07.49h0c.13-.36.26-.72.38-1.08l.18-.58c.19-.62.37-1.25.55-1.88.11-.4.23-.79.34-1.19.45-1.5.77-3,1.11-4.57,0-.09,0-.18.07-.28.09-.27.2-.54.3-.82V27.6h0s0,0,0,0,.16-.13.1-.25h0A12.09,12.09,0,0,1,66.54,25c.17-1.14.42-2.26.57-3.41a5.14,5.14,0,0,1,.31-1.49h0l0-.08a.2.2,0,0,0-.06-.09c-.91-.58-1.76-1.25-2.62-1.9-1.51-1.11-3-2.3-4.4-3.49a49.78,49.78,0,0,0-8.64,8A7.23,7.23,0,0,0,51.68,23.66Z"/><path class="cls-4" d="M86.22,52.5a.69.69,0,0,1-.92.43c-1-.25-2.11-.5-3.15-.78-1.77-.49-3.54-1-5.3-1.5S73.39,49.53,71.66,49a1.59,1.59,0,0,1-.22-.13,22.43,22.43,0,0,0-.25,5c1,.35,1.93.65,2.86,1.08.73.34,1.47.67,2.18,1a33.27,33.27,0,0,1,4.22,2.41c.59.43,1.18.84,1.76,1.28a1.62,1.62,0,0,0,.52.27c.53-.91,1-1.85,1.45-2.8l.45-1c.44-.92.85-1.86,1.25-2.8a.34.34,0,0,1,.46-.23c2.43.62,4.89,1,7.35,1.49a9.45,9.45,0,0,0,2.25.3,5.93,5.93,0,0,0-1.13-2.24,18.51,18.51,0,0,0-6.68-5.55,3.5,3.5,0,0,1-.21,1c-.1.31-.24.61-.36.92C87.12,50.2,86.73,51.37,86.22,52.5Z"/><path class="cls-9" d="M73.68,73.46c1.8-2.26,3.53-4.58,5.12-7,.92-1.41,1.83-2.83,2.62-4.32A14.8,14.8,0,0,1,82.76,60a.13.13,0,0,0,0-.08,1.62,1.62,0,0,1-.52-.27c-.58-.44-1.17-.85-1.76-1.28A33.27,33.27,0,0,0,76.23,56c-.71-.37-1.45-.7-2.18-1-.93-.43-1.9-.73-2.86-1.08a6.35,6.35,0,0,0,0,1.57A9.16,9.16,0,0,0,71.83,59c.42,1.09.79,2.2,1.27,3.27.37.84.68,1.72,1,2.59a11,11,0,0,1,.45,4.1A9.83,9.83,0,0,1,74,71.61l-.54,2C73.59,73.65,73.63,73.54,73.68,73.46Z"/><path class="cls-1" d="M86.34,53.16a.34.34,0,0,0-.46.23c-.4.94-.81,1.88-1.25,2.8l-.45,1c-.46,1-.92,1.89-1.45,2.8a.13.13,0,0,1,0,.08c1,.91,2,1.72,3,2.62.59.55,1.14,1.14,1.71,1.7.88.87,1.61,1.88,2.42,2.82.08.09.13.22.21.32a.35.35,0,0,0,.15.12.32.32,0,0,0,.22,0,5,5,0,0,0,1.17-1.13,32.12,32.12,0,0,0,3-3.84,8.92,8.92,0,0,0,1.78-6,3.25,3.25,0,0,0-.5-1.65,9.45,9.45,0,0,1-2.25-.3C91.23,54.18,88.77,53.78,86.34,53.16Z"/><polygon class="cls-6" points="81.02 44.47 81.03 44.48 81.03 44.48 81.02 44.47"/><path class="cls-6" d="M79.55,27.85l-.11-.06c-.66-.39-2-1.16-3.38-2-.12-.06-.18-.12-.2-.12a1.77,1.77,0,0,1-1.23.55c-1.12.17-7.73,1.32-8.33,1.65a.25.25,0,0,1-.28-.05c-.1.28-.21.55-.3.82,0,.1,0,.19-.07.28-.34,1.54-.66,3.07-1.11,4.57-.11.4-.23.79-.34,1.19-.18.63-.36,1.26-.55,1.88l-.18.58c-.12.36-.25.72-.38,1.08h0a.33.33,0,0,0,.21.19,31.89,31.89,0,0,1,4.51,2.83A8.1,8.1,0,0,1,71,46.11a7,7,0,0,0,.3,1c.28.73.9.52,1.38.42,2-.41,4.08-.7,6.06-1.31.69-.22,1.4-.15,2.08-.35a14.16,14.16,0,0,0,2.6-.75,8.23,8.23,0,0,0-2.34-.65c-.08,0-.16,0-.19-.05-.47-.15-1.6-.41-1.65-.42-1.27-.24-2.56-.44-3.83-.74-.59-.14-1.23-.18-1.79-.36a21,21,0,0,1-3-1.09,3.12,3.12,0,0,1-2-2.22,4.12,4.12,0,0,1,.84-2.94,18.21,18.21,0,0,1,5.75-5.3c1.35-.86,2.64-1.81,4-2.66a2.23,2.23,0,0,0,.74-.59L79.73,28Z"/><path class="cls-9" d="M66.3,27.84c.6-.33,7.21-1.48,8.33-1.65a1.77,1.77,0,0,0,1.23-.55c0-.16-3.48-2.22-5.22-3.34l-.17-.12-.75-.55c-.56-.4-1.14-.78-1.71-1.17l-.59-.4a5.14,5.14,0,0,0-.31,1.49c-.15,1.15-.4,2.27-.57,3.41-.12.8-.38,1.3-.52,2.64h0v.19A.25.25,0,0,0,66.3,27.84Z"/><path class="cls-9" d="M80.85,45.86c-.68.2-1.39.13-2.08.35-2,.61-4,.9-6.06,1.31-.48.1-1.1.31-1.38-.42,0,0,.08,1.45.11,1.74a1.59,1.59,0,0,0,.22.13c1.73.56,3.45,1.15,5.19,1.68s3.53,1,5.3,1.5c1,.28,2.1.53,3.15.78a.69.69,0,0,0,.92-.43c.51-1.13.9-2.3,1.34-3.45.12-.31.26-.61.36-.92a3.5,3.5,0,0,0,.21-1,19.92,19.92,0,0,0-4.68-2A14.16,14.16,0,0,1,80.85,45.86Z"/><path class="cls-5" d="M64.71,18c.86.65,1.71,1.32,2.62,1.9a.2.2,0,0,1,.06.09l0,.08h0l.59.4c.57.39,1.15.77,1.71,1.17l.75.55.17.12c1,.71,3.33,2.19,5.42,3.46,1.42.87,2.72,1.64,3.38,2l.11.06.18.1.26.14c.1,0,1.08-.7,1.48-1a31.15,31.15,0,0,0,4.92-4.26A10.73,10.73,0,0,0,88.22,20a5.91,5.91,0,0,0,.49-2.19,6.29,6.29,0,0,0-.81-2.71A4.54,4.54,0,0,0,86,13.31,4.09,4.09,0,0,0,84.22,13c-.59,0-1.18,0-1.77,0a2.7,2.7,0,0,1-1,.12l-.8.16L77.2,14a.27.27,0,0,1-.28-.06c-.31.06-.61.15-.92.18a2.53,2.53,0,0,1-2.26-.6c-.28.17-.58-1.75-.59-1.81A4.58,4.58,0,0,1,75,8.81a8.61,8.61,0,0,1,2.88-1.38A30.07,30.07,0,0,1,81,6.54,5.57,5.57,0,0,0,83.19,5.4a49.41,49.41,0,0,0-22.88,9.1C61.75,15.69,63.2,16.88,64.71,18Z"/><path class="cls-11" d="M38,141.37H29.36V108.14a2.15,2.15,0,1,0-4.3,0v33.23H16.45V108.14a2.16,2.16,0,0,0-3.56-1.66l-.15.12v0l-.12.12v0h0l-.09.15q.06-.09,0,0l-.09.15v0l-.09.15,0,.09,0,.12s0,0,0,.12l0,.09a.49.49,0,0,1,0,.12v.09a.73.73,0,0,0,0,.22v33.23H3.5V108.11a10.42,10.42,0,0,1,3.16-7.59,10.44,10.44,0,0,1,7.59-3.16h.42a10.45,10.45,0,0,1,6.08,2.17,10.75,10.75,0,0,1,14.09,1A10.37,10.37,0,0,1,38,108.14Z"/><path class="cls-11" d="M47.71,141.43H41v-33.6h6.72Z"/><path class="cls-11" d="M67.1,107.85v33.53H60.4V129.56L57,121.69v19.69H50.34V107.85H57V108l3.37,7.86v-8Z"/><path class="cls-11" d="M72.46,100.49a10.79,10.79,0,0,1,18.42,7.65V141.4H82.24v-8.64h-4.3v8.64H69.3V108.14A10.42,10.42,0,0,1,72.46,100.49Zm9.78,23.63v-16a2.09,2.09,0,0,0-.63-1.54,2,2,0,0,0-1.5-.63,2.15,2.15,0,0,0-2.17,2.17v16Z"/><path class="cls-11" d="M108.35,109.68a8.17,8.17,0,0,1,2.36,5.85V119H104v-3.42a1.61,1.61,0,0,0-.49-1.19,1.58,1.58,0,0,0-1.17-.49,1.66,1.66,0,0,0-1.07.37.34.34,0,0,0-.12.12l-.12.12-.09.14v0a.28.28,0,0,0-.07.09l0,0s0,.09,0,.14,0,0-.05.07l0,.07a.42.42,0,0,1,0,.09c0,.06,0,.09,0,.07v.12s0,.06,0,0v18.14a1.67,1.67,0,0,0,1.68,1.68H104V131.8H102.4v-6.72h8.31v16.44l-8.07.37h-.35a8.38,8.38,0,0,1-8.36-8.38v-18a8.4,8.4,0,0,1,8.36-8.36h.35A8.06,8.06,0,0,1,108.35,109.68Z"/><path class="cls-11" d="M129.89,107.85v25.87a8.39,8.39,0,0,1-16.77,0V107.85h6.72v25.87a1.71,1.71,0,0,0,1.67,1.67,1.63,1.63,0,0,0,1.19-.5,1.56,1.56,0,0,0,.49-1.17V107.85Z"/><path class="cls-11" d="M134.66,109.59A8.4,8.4,0,0,1,149,115.53V141.4h-6.72v-6.72h-3.35v6.72H132.2V115.53A8.09,8.09,0,0,1,134.66,109.59ZM142.27,128V115.53a1.67,1.67,0,0,0-1.66-1.68,1.63,1.63,0,0,0-1.2.49,1.65,1.65,0,0,0-.49,1.19V128Z"/><path class="cls-11" d="M165.89,109.7a8.13,8.13,0,0,1,2.34,5.83V119h-6.69v-3.44a1.67,1.67,0,0,0-1.69-1.66,1.58,1.58,0,0,0-1,.38.43.43,0,0,0-.12.11h0l-.1.12h0l-.07.12v0h0a.88.88,0,0,0-.07.12s0,0,0,0a.88.88,0,0,0-.07.12l0,.07,0,.09,0,.1,0,.07a.23.23,0,0,1,0,.09V123a1.63,1.63,0,0,0,.49,1.2,1.66,1.66,0,0,0,1.17.47l.31,0a8.38,8.38,0,0,1-.31,16.76h-8.38v-6.72h8.38a1.67,1.67,0,1,0,0-3.34h-.33a8.43,8.43,0,0,1-8.05-8.36v-7.47a8.4,8.4,0,0,1,8.36-8.36h.33A8.12,8.12,0,0,1,165.89,109.7Z"/></g></g></g></svg>